<svg width="133" height="30" viewBox="0 0 133 30" fill="none" xmlns="http://www.w3.org/2000/svg">
<g clip-path="url(#clip0_413_978)">
<path d="M58.8697 15.3944V9.31116H61.0372V23.6857L58.8697 23.686V17.548H52.3557V23.686H50.1865V9.31132H52.3557V15.3759L58.8697 15.3944Z" fill="white"/>
<path d="M84.5017 21.613H78.7862V9.3114H76.6177V23.6861L84.5017 23.6856V21.613Z" fill="white"/>
<path d="M73.2337 21.5189H66.5877V17.5469H72.5747V15.3764H66.5877V11.4812H73.2337V9.31421H64.4214V23.6888L73.2337 23.6885V21.5189Z" fill="white"/>
<path fill-rule="evenodd" clip-rule="evenodd" d="M30.9426 23.6885H36.5888C37.9611 23.6885 39.1243 23.3421 39.948 22.6864C40.7761 22.0273 41.2473 21.0659 41.2473 19.8725C41.2473 18.3546 40.5226 17.2504 39.3717 16.6029L39.1705 16.4898L39.3694 16.3724C40.4354 15.7431 41.0728 14.6813 41.0728 13.247C41.0728 12.0982 40.6595 11.1138 39.8669 10.4186C39.0763 9.72526 37.9251 9.33374 36.4726 9.33374H30.9426V23.6885ZM33.1092 21.7105V17.4321H36.6277C37.3454 17.4321 37.9543 17.6284 38.3832 17.9868C38.8083 18.342 39.0706 18.8681 39.0801 19.5617V19.5637C39.0797 20.2402 38.8393 20.7706 38.4239 21.1339C38.0055 21.5 37.3934 21.7105 36.6277 21.7105H33.1092ZM33.1092 15.5901L33.1091 11.2919H36.453C37.2615 11.2919 37.8725 11.543 38.2803 11.9341C38.688 12.3252 38.9056 12.8689 38.9056 13.48C38.9056 14.0916 38.6927 14.6143 38.2921 14.985C37.8906 15.3566 37.2844 15.5901 36.4725 15.5901H33.1092Z" fill="white"/>
<path d="M44.6333 23.6885V9.31384H46.8028V23.6885H44.6333Z" fill="white"/>
<path d="M87.8828 23.6861V9.3114H90.0523V23.6861H87.8828Z" fill="white"/>
<path d="M96.0518 23.6867L99.5867 18.4409L103.122 23.6867H105.739L100.895 16.4991L105.738 9.3114H103.121L99.5867 14.5571L96.052 9.3114H93.435L98.2782 16.4991L93.4348 23.6867H96.0518Z" fill="white"/>
<path fill-rule="evenodd" clip-rule="evenodd" d="M23.8236 5.61059L16.5823 3.66907L11.2832 8.9741L13.2234 16.2218L20.4624 18.164L25.7636 12.8583L23.8236 5.61059ZM17.2327 6.09756L13.7093 9.62475L14.9994 14.4442L19.8124 15.7354L23.3375 12.2074L22.0475 7.38854L17.2327 6.09756Z" fill="white"/>
<path d="M5.98269 14.2808L13.2238 16.2223L15.164 23.47L13.3887 25.2468L11.4489 18.0003L4.20679 16.0586L5.98269 14.2808Z" fill="white"/>
<path d="M11.6144 27.0261L9.31142 29.331L2.05244 27.3835L0.117432 20.1552L2.43308 17.8369L9.67437 19.7785L11.6144 27.0261Z" fill="white"/>
</g>
<path d="M108 4.5C108 2.29086 109.791 0.5 112 0.5H133V7.5C133 9.70914 131.209 11.5 129 11.5H108V4.5Z" fill="#43403E"/>
<path d="M126.85 9.61991C125.99 9.61991 125.43 9.10991 125.43 8.32991C125.43 7.36991 126.17 6.74991 127.46 6.63991L129.04 6.51991L129.06 6.37991C129.22 5.54991 128.82 5.08991 127.96 5.08991C127.14 5.08991 126.67 5.44991 126.56 6.13991H125.93C126.08 5.11991 126.85 4.52991 128 4.52991C129.23 4.52991 129.9 5.23991 129.72 6.35991L129.23 9.49991H128.66L128.72 8.64991C128.35 9.24991 127.64 9.61991 126.85 9.61991ZM127.05 9.06991C128.04 9.06991 128.76 8.37991 128.93 7.28991L128.97 7.01991L127.53 7.13991C126.6 7.21991 126.09 7.63991 126.09 8.29991C126.09 8.76991 126.46 9.06991 127.05 9.06991Z" fill="#FAF0E6"/>
<path d="M123.718 9.50001H123.058L123.738 5.22001H122.798L122.888 4.66001H123.828L124.068 3.13H124.718L124.478 4.66001H125.428L125.338 5.22001H124.388L123.718 9.50001Z" fill="#FAF0E6"/>
<path d="M119.611 9.61991C118.381 9.61991 117.541 8.73991 117.541 7.46991C117.541 5.80991 118.671 4.52991 120.131 4.52991C121.461 4.52991 122.251 5.51991 122.041 6.82991L121.991 7.15991H118.201C118.191 7.24991 118.191 7.33991 118.191 7.43991C118.191 8.41991 118.751 9.04991 119.621 9.04991C120.331 9.04991 120.941 8.67991 121.181 8.05991H121.841C121.521 9.02991 120.641 9.61991 119.611 9.61991ZM120.111 5.09991C119.251 5.09991 118.541 5.74991 118.291 6.67991H121.401C121.551 5.72991 121.011 5.09991 120.111 5.09991Z" fill="#FAF0E6"/>
<path d="M111.49 9.49997L112.62 2.33997H115.18C116.33 2.33997 117.08 3.00997 117.08 4.01997C117.08 4.91997 116.59 5.61997 115.7 5.92997C116.35 6.15997 116.69 6.66997 116.69 7.40997C116.69 8.68997 115.72 9.49997 114.19 9.49997H111.49ZM115.08 2.96997H113.2L112.78 5.60997H114.75C115.73 5.60997 116.39 4.99997 116.39 4.07997C116.39 3.38997 115.88 2.96997 115.08 2.96997ZM114.69 6.21997H112.69L112.27 8.87997H114.28C115.34 8.87997 116 8.30997 116 7.40997C116 6.64997 115.52 6.21997 114.69 6.21997Z" fill="#FAF0E6"/>
<defs>
<clipPath id="clip0_413_978">
<rect width="106" height="26" fill="white" transform="translate(0 3.5)"/>
</clipPath>
</defs>
</svg>
