<svg width="136" height="30" viewBox="0 0 136 30" fill="none" xmlns="http://www.w3.org/2000/svg">
<path d="M11.1482 23.7274V10.6349H6V5.00195H17.8216V10.6349H15.278V21.8181L11.1482 23.7274Z" fill="white"/>
<path d="M19.0483 21.8182V5L23.5 5V16L28 17.5V25L19.0483 21.8182Z" fill="white"/>
<path d="M34.306 10.966V8.842H44.314V10.966H40.462V22H38.158V10.966H34.306ZM57.5538 15.412C57.5538 19.408 54.9258 22.216 51.1458 22.216C47.3838 22.216 44.7918 19.426 44.7918 15.412C44.7918 11.416 47.4018 8.608 51.1638 8.608C54.9258 8.608 57.5538 11.398 57.5538 15.412ZM55.1238 15.412C55.1238 12.604 53.5758 10.822 51.1638 10.822C48.7518 10.822 47.2038 12.604 47.2038 15.412C47.2038 18.22 48.7518 20.002 51.1638 20.002C53.5758 20.002 55.1238 18.184 55.1238 15.412ZM62.0022 8.842V15.754L67.3302 8.842H70.0482L65.6922 14.458L70.1022 22H67.4382L64.1802 16.402L62.0022 19.192V22H59.6982V8.842H62.0022ZM79.9991 22H71.8271V8.842H79.9991V10.966H74.1311V14.35H79.3871V16.384H74.1311V19.876H79.9991V22ZM84.7651 22H82.4971V8.842H84.7831L90.9571 18.166V8.842H93.2251V22H90.9571L84.7651 12.676V22ZM103.293 8.842V19.876H108.801V22H100.989V8.842H103.293ZM112.979 8.842V22H110.675V8.842H112.979ZM115.14 12.514C115.14 10.21 117.048 8.608 119.82 8.608C122.484 8.608 124.176 10.084 124.248 12.46H121.944C121.89 11.326 121.08 10.66 119.784 10.66C118.362 10.66 117.444 11.344 117.444 12.442C117.444 13.378 117.948 13.9 119.046 14.152L121.116 14.602C123.366 15.088 124.464 16.24 124.464 18.202C124.464 20.65 122.556 22.234 119.658 22.234C116.85 22.234 115.014 20.74 114.96 18.382H117.264C117.282 19.498 118.182 20.164 119.658 20.164C121.188 20.164 122.16 19.498 122.16 18.4C122.16 17.518 121.71 16.996 120.63 16.762L118.542 16.294C116.31 15.808 115.14 14.53 115.14 12.514ZM125.22 10.966V8.842H135.228V10.966H131.376V22H129.072V10.966H125.22Z" fill="white"/>
</svg>
